# This file uses centimeters as units for non-parametric coordinates.

g default
v -3.000000 0.000000 -7.000000
v 0.000000 0.000000 -7.000000
v -3.000000 5.000000 -7.000000
v 0.000000 5.000000 -7.000000
v -3.000000 5.000000 0.000000
v -3.000000 0.000000 0.000000
v 0.000000 0.000000 0.000000
v -3.000000 0.000000 7.000000
v 0.000000 0.000000 7.000000
v -3.000000 5.000000 7.000000
v 0.000000 5.000000 7.000000
vt 0.308078 0.694566
vt 0.794503 0.694566
vt 0.794503 0.986696
vt 0.308073 0.986577
vt 0.308086 0.061706
vt 0.794505 0.061706
vt 0.016478 0.061706
vt 0.016478 0.694566
vt 0.308078 0.694566
vt 0.794503 0.694566
vt 0.794503 0.986696
vt 0.308073 0.986577
vt 0.308086 0.061706
vt 0.794505 0.061706
vt 0.016478 0.061706
vt 0.016478 0.694566
vn 0.000000 0.000000 1.000000
vn 0.000000 0.000000 1.000000
vn 0.000000 0.000000 1.000000
vn 0.000000 0.000000 1.000000
vn 1.000000 0.000000 0.000000
vn 1.000000 0.000000 0.000000
vn 1.000000 0.000000 0.000000
vn 1.000000 0.000000 0.000000
vn 0.000000 1.000000 0.000000
vn 0.000000 1.000000 0.000000
vn 0.000000 1.000000 0.000000
vn 0.000000 1.000000 0.000000
vn 0.000000 0.000000 -1.000000
vn 0.000000 0.000000 -1.000000
vn 0.000000 0.000000 -1.000000
vn 0.000000 0.000000 -1.000000
vn 1.000000 0.000000 0.000000
vn 1.000000 0.000000 0.000000
vn 1.000000 0.000000 0.000000
vn 1.000000 0.000000 0.000000
vn 0.000000 1.000000 0.000000
vn 0.000000 1.000000 0.000000
vn 0.000000 1.000000 0.000000
vn 0.000000 1.000000 0.000000
s off
g geo
f 1/1/1 2/4/2 4/3/3 3/2/4
f 6/5/5 1/1/6 3/2/7 5/6/8
f 7/7/9 2/8/10 1/1/11 6/5/12
f 8/9/13 10/10/14 11/11/15 9/12/16
f 6/13/17 5/14/18 10/10/19 8/9/20
f 7/15/21 6/13/22 8/9/23 9/16/24
